<!DOCTYPE svg PUBLIC "-//W3C//DTD SVG 1.1//EN" "http://www.w3.org/Graphics/SVG/1.1/DTD/svg11.dtd">
<svg version="1.1" id="Layer_1" xmlns:x="&ns_extend;" xmlns:i="&ns_ai;" xmlns:graph="&ns_graphs;"
	 xmlns="http://www.w3.org/2000/svg" xmlns:xlink="http://www.w3.org/1999/xlink" x="0px" y="0px" width="147px" height="160.411px"
	 viewBox="0 0 147 160.411" enable-background="new 0 0 147 160.411" xml:space="preserve">
	 
	<g i:extraneous="self">
		<path fill-rule="evenodd" clip-rule="evenodd" d="M51.793,86.171h61.214l-2.499,6.804H54.41L51.793,86.171L51.793,86.171z
			 M24.002,149.285h98.194v6.805H24.002V149.285L24.002,149.285z M72.684,4.911c-18.828,0-35.874,7.632-48.213,19.97
			c-4.486,4.486-8.35,9.595-11.45,15.185h9.101c2.285-3.492,4.922-6.733,7.861-9.673C40.91,19.465,56.008,12.706,72.684,12.706
			c16.675,0,31.772,6.759,42.7,17.687c10.928,10.928,17.687,26.025,17.687,42.701c0,16.675-6.759,31.773-17.687,42.701
			s-26.025,17.687-42.7,17.687c-16.676,0-31.773-6.759-42.701-17.687S12.296,89.769,12.296,73.093c0-6.825,1.133-13.385,3.22-19.503
			H7.331C5.49,59.769,4.5,66.316,4.5,73.093c0,18.828,7.633,35.874,19.971,48.212c12.339,12.338,29.385,19.97,48.213,19.97
			c18.827,0,35.873-7.632,48.212-19.97c12.339-12.339,19.971-29.385,19.971-48.212c0-18.828-7.632-35.874-19.971-48.212
			C108.557,12.542,91.511,4.911,72.684,4.911L72.684,4.911z M7.213,43.521l0.116,6.613h16.673l21.908,55.359h60l2.498-6.804H50.993
			L29.778,43.521H7.213L7.213,43.521z M97.409,108.965c2.74,0,4.961,2.221,4.961,4.96c0,2.74-2.221,4.961-4.961,4.961
			c-2.739,0-4.96-2.221-4.96-4.961C92.449,111.186,94.67,108.965,97.409,108.965L97.409,108.965z M54.41,108.965
			c2.74,0,4.961,2.221,4.961,4.96c0,2.74-2.221,4.961-4.961,4.961s-4.961-2.221-4.961-4.961
			C49.449,111.186,51.67,108.965,54.41,108.965L54.41,108.965z M42.168,61.142l80.028,0.008l-2.496,6.796H44.785L42.168,61.142
			L42.168,61.142z M46.982,73.66h70.619l-2.493,6.805L49.6,80.464L46.982,73.66z"/>
	</g>
	
</svg>
