<svg xmlns="http://www.w3.org/2000/svg" xml:space="preserve" width="91.64px" height="100px" version="1.1" style="shape-rendering:geometricPrecision; text-rendering:geometricPrecision; image-rendering:optimizeQuality; fill-rule:evenodd; clip-rule:evenodd" viewBox="0 0 1894 2100" xmlns:xlink="http://www.w3.org/1999/xlink">
 <g id="Layer_x0020_1">
  <path fill="#ffffff" d="M657 1129l850 0 -35 94 -779 0 -36 -94zm-386 876l1364 0 0 95 -1364 0 0 -95zm676 -2005c261,0 498,106 670,277 171,172 277,408 277,670 0,261 -106,498 -277,670 -172,171 -409,277 -670,277 -262,0 -498,-106 -670,-277 -171,-172 -277,-409 -277,-670 0,-94 14,-185 39,-271l114 0c-29,85 -45,176 -45,271 0,232 94,441 246,593 152,152 361,246 593,246 232,0 441,-94 593,-246 152,-152 246,-361 246,-593 0,-232 -94,-441 -246,-593 -152,-152 -361,-246 -593,-246 -232,0 -441,94 -593,246 -41,41 -78,86 -109,134l-127 0c43,-77 97,-148 159,-211 172,-171 408,-277 670,-277zm-909 536l313 0 295 766 797 0 -35 95 -833 0 -304 -769 -232 0 -1 -92zm1252 909c38,0 69,31 69,69 0,38 -31,69 -69,69 -38,0 -68,-31 -68,-69 0,-38 30,-69 68,-69zm-597 0c38,0 69,31 69,69 0,38 -31,69 -69,69 -38,0 -69,-31 -69,-69 0,-38 31,-69 69,-69zm-170 -664l1112 0 -35 94 -1040 0 -37 -94zm67 174l981 0 -35 94 -910 0 -36 -94z"/>
 </g>
</svg>
